<svg width="140" height="32" viewBox="0 0 140 32" fill="none" xmlns="http://www.w3.org/2000/svg">
<path d="M16.9759 4.93598C17.0786 3.58738 18.2646 2.55654 19.5756 2.88872C21.3759 3.34484 23.0773 4.15118 24.5792 5.27007C26.739 6.87904 28.3975 9.06818 29.3619 11.5828C30.3263 14.0975 30.5568 16.8342 30.0267 19.4748C29.4965 22.1153 28.2276 24.551 26.3674 26.4986C24.5072 28.4462 22.1322 29.8256 19.5188 30.4763C16.9053 31.1269 14.1609 31.0222 11.6046 30.1742C9.04839 29.3262 6.78547 27.7698 5.07914 25.6861C3.89253 24.2371 3.009 22.5744 2.47079 20.797C2.07882 19.5026 3.05417 18.2705 4.39664 18.1061C5.73912 17.9418 6.93172 18.9189 7.43901 20.1726C7.78964 21.0392 8.27035 21.8525 8.86853 22.583C9.98724 23.9491 11.4709 24.9695 13.1468 25.5255C14.8227 26.0814 16.622 26.1501 18.3354 25.7235C20.0489 25.2969 21.6059 24.3926 22.8255 23.1157C24.0451 21.8388 24.8771 20.2419 25.2246 18.5107C25.5722 16.7795 25.4211 14.9852 24.7888 13.3366C24.1566 11.6879 23.0692 10.2527 21.6532 9.19782C20.896 8.63377 20.0616 8.19087 19.1798 7.88036C17.9041 7.43112 16.8733 6.28459 16.9759 4.93598Z" fill="#5454CB"/>
<path d="M11.9935 1.77899C13.3451 1.82854 14.4217 2.97319 14.1413 4.2963C13.5842 6.92524 12.2892 9.36032 10.3848 11.3033C8.48029 13.2462 6.07158 14.5896 3.45431 15.1992C2.13707 15.506 0.971119 14.4525 0.894554 13.1021C0.817989 11.7518 1.87073 10.6254 3.15487 10.2008C4.55562 9.73773 5.83798 8.94498 6.887 7.87477C7.93602 6.80456 8.70296 5.5066 9.13797 4.09687C9.53676 2.8045 10.6419 1.72944 11.9935 1.77899Z" fill="#5AD0E0"/>
<path d="M57.5568 15.7727C57.5568 17.6761 57.196 19.2955 56.4744 20.6307C55.7585 21.9659 54.7813 22.9858 53.5426 23.6903C52.3097 24.3892 50.9233 24.7386 49.3835 24.7386C47.8324 24.7386 46.4403 24.3864 45.2074 23.6818C43.9744 22.9773 43 21.9574 42.2841 20.6222C41.5682 19.2869 41.2102 17.6705 41.2102 15.7727C41.2102 13.8693 41.5682 12.25 42.2841 10.9148C43 9.57955 43.9744 8.5625 45.2074 7.86364C46.4403 7.15909 47.8324 6.80682 49.3835 6.80682C50.9233 6.80682 52.3097 7.15909 53.5426 7.86364C54.7813 8.5625 55.7585 9.57955 56.4744 10.9148C57.196 12.25 57.5568 13.8693 57.5568 15.7727ZM53.8153 15.7727C53.8153 14.5398 53.6307 13.5 53.2614 12.6534C52.8977 11.8068 52.3835 11.1648 51.7188 10.7273C51.054 10.2898 50.2756 10.071 49.3835 10.071C48.4915 10.071 47.7131 10.2898 47.0483 10.7273C46.3835 11.1648 45.8665 11.8068 45.4972 12.6534C45.1335 13.5 44.9517 14.5398 44.9517 15.7727C44.9517 17.0057 45.1335 18.0455 45.4972 18.892C45.8665 19.7386 46.3835 20.3807 47.0483 20.8182C47.7131 21.2557 48.4915 21.4744 49.3835 21.4744C50.2756 21.4744 51.054 21.2557 51.7188 20.8182C52.3835 20.3807 52.8977 19.7386 53.2614 18.892C53.6307 18.0455 53.8153 17.0057 53.8153 15.7727ZM60.2223 24.5V11.4091H63.7422V13.6932H63.8786C64.1172 12.8807 64.5178 12.267 65.0803 11.8523C65.6428 11.4318 66.2905 11.2216 67.0234 11.2216C67.2053 11.2216 67.4013 11.233 67.6115 11.2557C67.8217 11.2784 68.0064 11.3097 68.1655 11.3494V14.571C67.995 14.5199 67.7592 14.4744 67.4581 14.4347C67.157 14.3949 66.8814 14.375 66.6314 14.375C66.0973 14.375 65.62 14.4915 65.1996 14.7244C64.7848 14.9517 64.4553 15.2699 64.2109 15.679C63.9723 16.0881 63.853 16.5597 63.853 17.0938V24.5H60.2223ZM75.331 29.6818C74.1548 29.6818 73.1463 29.5199 72.3054 29.196C71.4702 28.8778 70.8054 28.4432 70.3111 27.892C69.8168 27.3409 69.4957 26.7216 69.348 26.0341L72.706 25.5824C72.8082 25.8438 72.9702 26.0881 73.1918 26.3153C73.4134 26.5426 73.706 26.7244 74.0696 26.8608C74.4389 27.0028 74.8878 27.0739 75.4162 27.0739C76.206 27.0739 76.8565 26.8807 77.3679 26.4943C77.8849 26.1136 78.1435 25.4744 78.1435 24.5767V22.1818H77.9901C77.831 22.5455 77.5923 22.8892 77.2741 23.2131C76.956 23.5369 76.5469 23.8011 76.0469 24.0057C75.5469 24.2102 74.9503 24.3125 74.2571 24.3125C73.2741 24.3125 72.3793 24.0852 71.5724 23.6307C70.7713 23.1705 70.1321 22.4687 69.6548 21.5256C69.1832 20.5767 68.9474 19.3778 68.9474 17.929C68.9474 16.446 69.1889 15.2074 69.6719 14.2131C70.1548 13.2187 70.7969 12.4744 71.598 11.9801C72.4048 11.4858 73.2884 11.2386 74.2486 11.2386C74.9815 11.2386 75.5952 11.3636 76.0895 11.6136C76.5838 11.858 76.9815 12.1648 77.2827 12.5341C77.5895 12.8977 77.8253 13.2557 77.9901 13.608H78.1264V11.4091H81.7315V24.6278C81.7315 25.7415 81.4588 26.6733 80.9134 27.4233C80.3679 28.1733 79.6122 28.7358 78.6463 29.1108C77.6861 29.4915 76.581 29.6818 75.331 29.6818ZM75.4077 21.5852C75.9929 21.5852 76.4872 21.4403 76.8906 21.1506C77.2997 20.8551 77.6122 20.4347 77.8281 19.8892C78.0497 19.3381 78.1605 18.679 78.1605 17.9119C78.1605 17.1449 78.0526 16.4801 77.8366 15.9176C77.6207 15.3494 77.3082 14.9091 76.8991 14.5966C76.4901 14.2841 75.9929 14.1278 75.4077 14.1278C74.8111 14.1278 74.3082 14.2898 73.8991 14.6136C73.4901 14.9318 73.1804 15.375 72.9702 15.9432C72.7599 16.5114 72.6548 17.1676 72.6548 17.9119C72.6548 18.6676 72.7599 19.321 72.9702 19.8722C73.1861 20.4176 73.4957 20.8409 73.8991 21.142C74.3082 21.4375 74.8111 21.5852 75.4077 21.5852ZM88.3537 24.7472C87.5185 24.7472 86.7741 24.6023 86.1207 24.3125C85.4673 24.017 84.9503 23.5824 84.5696 23.0085C84.1946 22.429 84.0071 21.7074 84.0071 20.8438C84.0071 20.1165 84.1406 19.5057 84.4077 19.0114C84.6747 18.517 85.0384 18.1193 85.4986 17.8182C85.9588 17.517 86.4815 17.2898 87.0668 17.1364C87.6577 16.983 88.277 16.875 88.9247 16.8125C89.6861 16.733 90.2997 16.6591 90.7656 16.5909C91.2315 16.517 91.5696 16.4091 91.7798 16.267C91.9901 16.125 92.0952 15.9148 92.0952 15.6364V15.5852C92.0952 15.0455 91.9247 14.6278 91.5838 14.3324C91.2486 14.0369 90.7713 13.8892 90.152 13.8892C89.4986 13.8892 88.9787 14.0341 88.5923 14.3239C88.206 14.608 87.9503 14.9659 87.8253 15.3977L84.4673 15.125C84.6378 14.3295 84.973 13.642 85.473 13.0625C85.973 12.4773 86.6179 12.0284 87.4077 11.7159C88.2031 11.3977 89.1236 11.2386 90.169 11.2386C90.8963 11.2386 91.5923 11.3239 92.2571 11.4943C92.9276 11.6648 93.5213 11.929 94.0384 12.2869C94.5611 12.6449 94.973 13.1051 95.2741 13.6676C95.5753 14.2244 95.7259 14.892 95.7259 15.6705V24.5H92.2827V22.6847H92.1804C91.9702 23.0938 91.6889 23.4545 91.3366 23.767C90.9844 24.0739 90.5611 24.3153 90.0668 24.4915C89.5724 24.6619 89.0014 24.7472 88.3537 24.7472ZM89.3935 22.2415C89.9276 22.2415 90.3991 22.1364 90.8082 21.9261C91.2173 21.7102 91.5384 21.4205 91.7713 21.0568C92.0043 20.6932 92.1207 20.2812 92.1207 19.821V18.4318C92.0071 18.5057 91.8509 18.5739 91.652 18.6364C91.4588 18.6932 91.2401 18.7472 90.9957 18.7983C90.7514 18.8437 90.5071 18.8864 90.2628 18.9261C90.0185 18.9602 89.7969 18.9915 89.598 19.0199C89.1719 19.0824 88.7997 19.1818 88.4815 19.3182C88.1634 19.4545 87.9162 19.6392 87.7401 19.8722C87.5639 20.0994 87.4759 20.3835 87.4759 20.7244C87.4759 21.2188 87.6548 21.5966 88.0128 21.858C88.3764 22.1136 88.8366 22.2415 89.3935 22.2415ZM102.173 16.9318V24.5H98.5426V11.4091H102.003V13.7188H102.156C102.446 12.9574 102.932 12.3551 103.614 11.9119C104.295 11.4631 105.122 11.2386 106.094 11.2386C107.003 11.2386 107.795 11.4375 108.472 11.8352C109.148 12.233 109.673 12.8011 110.048 13.5398C110.423 14.2727 110.611 15.1477 110.611 16.1648V24.5H106.98V16.8125C106.986 16.0114 106.781 15.3864 106.366 14.9375C105.952 14.483 105.381 14.2557 104.653 14.2557C104.165 14.2557 103.733 14.3608 103.358 14.571C102.989 14.7812 102.699 15.0881 102.489 15.4915C102.284 15.8892 102.179 16.3693 102.173 16.9318ZM113.472 24.5V11.4091H117.103V24.5H113.472ZM115.296 9.72159C114.756 9.72159 114.293 9.54261 113.907 9.18466C113.526 8.82102 113.336 8.38636 113.336 7.88068C113.336 7.38068 113.526 6.9517 113.907 6.59375C114.293 6.23011 114.756 6.04829 115.296 6.04829C115.836 6.04829 116.296 6.23011 116.677 6.59375C117.063 6.9517 117.256 7.38068 117.256 7.88068C117.256 8.38636 117.063 8.82102 116.677 9.18466C116.296 9.54261 115.836 9.72159 115.296 9.72159ZM123.045 11.4091L125.449 15.9858L127.912 11.4091H131.636L127.844 17.9545L131.739 24.5H128.031L125.449 19.9744L122.909 24.5H119.159L123.045 17.9545L119.295 11.4091H123.045ZM135.915 24.7216C135.352 24.7216 134.869 24.5227 134.466 24.125C134.068 23.7216 133.869 23.2386 133.869 22.6761C133.869 22.1193 134.068 21.642 134.466 21.2443C134.869 20.8466 135.352 20.6477 135.915 20.6477C136.46 20.6477 136.938 20.8466 137.347 21.2443C137.756 21.642 137.96 22.1193 137.96 22.6761C137.96 23.0511 137.864 23.3949 137.67 23.7074C137.483 24.0142 137.236 24.2614 136.929 24.4489C136.622 24.6307 136.284 24.7216 135.915 24.7216Z" fill="#040506"/>
</svg>
